<svg width="24" height="24" viewBox="0 0 24 24" fill="none" xmlns="http://www.w3.org/2000/svg">
<path d="M7.99994 12.8961C9.13986 12.8961 10.0639 11.972 10.0639 10.8321C10.0639 9.69215 9.13986 8.76807 7.99994 8.76807C6.86003 8.76807 5.93594 9.69215 5.93594 10.8321C5.93594 11.972 6.86003 12.8961 7.99994 12.8961Z" fill="#292929"/>
<path d="M12 0C5.376 0 0 5.376 0 12C0 18.624 5.376 24 12 24C18.624 24 24 18.624 24 12C24 5.376 18.624 0 12 0ZM3.76 10.848C3.76 8.512 5.664 6.608 8 6.608C10.336 6.608 12.24 8.512 12.24 10.848C12.24 13.184 10.336 15.088 8 15.088C5.664 15.088 3.76 13.184 3.76 10.848ZM12.544 19.408C11.216 19.408 9.936 19.04 8.816 18.336L9.92 16.56C10.704 17.056 11.616 17.312 12.544 17.312C13.472 17.312 14.384 17.056 15.152 16.56L16.256 18.336C15.152 19.04 13.856 19.408 12.544 19.408ZM14.288 11.888V9.792H20.72V11.888H14.288Z" fill="#292929"/>
</svg>
