<svg width="24" height="26" viewBox="0 0 24 26" fill="none" xmlns="http://www.w3.org/2000/svg">
<path d="M0 0L0 22H9V20H2V8H22V20H15V22H24V0L0 0ZM2 2H22V6H2V2ZM4 3C3.44922 3 3 3.44922 3 4C3 4.55078 3.44922 5 4 5C4.55078 5 5 4.55078 5 4C5 3.44922 4.55078 3 4 3ZM7 3C6.44922 3 6 3.44922 6 4C6 4.55078 6.44922 5 7 5C7.55078 5 8 4.55078 8 4C8 3.44922 7.55078 3 7 3ZM9 3V5H20V3H9ZM12 11.5938L11.2812 12.2812L7.78125 15.7812L9.21875 17.2188L11 15.4375V23C11 23.5664 10.5664 24 10 24H8V26H10C11.6445 26 13 24.6445 13 23V15.4375L14.7812 17.2188L16.2188 15.7812L12.7188 12.2812L12 11.5938Z" fill="black"/>
</svg>
