<svg width="26" height="26" viewBox="0 0 26 26" fill="none" xmlns="http://www.w3.org/2000/svg">
<path d="M17 0C13.4961 0 10.4531 2 8.96875 4.9375C7.23828 5.80469 5.83984 7.23438 4.96875 8.96875C2.02734 10.4531 0 13.4922 0 17C0 21.957 4.04297 26 9 26C12.5078 26 15.5469 23.9727 17.0312 21.0312C18.7539 20.1602 20.1602 18.7578 21.0312 17.0312C23.9766 15.5508 26 12.5078 26 9C26 4.04297 21.957 0 17 0ZM17 2C20.8789 2 24 5.12109 24 9C24 10.9336 23.1992 12.6719 21.9375 13.9375C21.9688 13.625 22 13.3203 22 13C22 8.04297 17.957 4 13 4C12.6836 4 12.3711 4.03125 12.0625 4.0625C13.3281 2.80078 15.0664 2 17 2ZM13 6C16.8789 6 20 9.12109 20 13C20 14.918 19.2109 16.6445 17.9688 17.9062C18 17.6055 18 17.3086 18 17C18 12.043 13.957 8 9 8C8.69141 8 8.39453 8 8.09375 8.03125C9.35938 6.78125 11.0742 6 13 6ZM9 10C12.8789 10 16 13.1211 16 17C16 20.8789 12.8789 24 9 24C5.12109 24 2 20.8789 2 17C2 13.1211 5.12109 10 9 10Z" fill="black"/>
</svg>
